<svg xmlns="http://www.w3.org/2000/svg" width="1200" height="675" viewBox="0 0 1200 675" fill="none">
  <defs>
    <linearGradient id="g3" x1="98" y1="64" x2="1098" y2="620" gradientUnits="userSpaceOnUse">
      <stop stop-color="#264653"/>
      <stop offset="0.55" stop-color="#2A9D8F"/>
      <stop offset="1" stop-color="#F4A261"/>
    </linearGradient>
  </defs>
  <rect width="1200" height="675" rx="36" fill="#F5FAFD"/>
  <rect x="28" y="28" width="1144" height="619" rx="30" fill="url(#g3)"/>
  <path d="M120 468C210 408 294 354 390 340C486 326 534 374 624 352C704 334 756 258 852 234C948 210 1034 242 1088 194" stroke="#FFF3E0" stroke-width="12" stroke-linecap="round"/>
  <path d="M124 520C202 472 282 448 362 444C466 438 564 482 664 466C758 452 828 394 908 388C984 382 1044 420 1082 412" stroke="#D9FFF8" stroke-width="10" stroke-linecap="round" opacity="0.85"/>
  <text x="92" y="170" fill="#E7FFF8" font-family="Arial, sans-serif" font-size="28" letter-spacing="5">CO-FIRST AUTHOR PROJECT</text>
  <text x="92" y="276" fill="#FFFFFF" font-family="Georgia, serif" font-size="66" font-weight="700">Ozone Downscaling</text>
  <text x="92" y="352" fill="#FFF5E8" font-family="Arial, sans-serif" font-size="34">Physics-consistent machine learning</text>
  <text x="92" y="404" fill="#FFF5E8" font-family="Arial, sans-serif" font-size="34">GEOS-Chem + ERA5 + ground observations</text>
</svg>
